<mxfile host="app.diagrams.net" modified="2022-04-26T17:15:44.886Z" agent="5.0 (Windows NT 10.0; Win64; x64) AppleWebKit/537.36 (KHTML, like Gecko) Chrome/100.0.4896.127 Safari/537.36" etag="b5Q1-g0lw7E2-UlSKnJq" version="17.4.6" type="github">
  <diagram id="a6IZxLH1zA7pDtUKAxs6" name="Page-1">
    <mxGraphModel dx="1385" dy="610" grid="1" gridSize="10" guides="1" tooltips="1" connect="1" arrows="1" fold="1" page="1" pageScale="1" pageWidth="850" pageHeight="1100" math="0" shadow="0">
      <root>
        <mxCell id="0" />
        <mxCell id="1" parent="0" />
        <mxCell id="g5n_KpkKgmh2FyytPr5Z-1" value="Splash Screen" style="rounded=0;whiteSpace=wrap;html=1;direction=south;" vertex="1" parent="1">
          <mxGeometry x="395" y="10" width="95" height="150" as="geometry" />
        </mxCell>
        <mxCell id="g5n_KpkKgmh2FyytPr5Z-4" value="" style="edgeStyle=segmentEdgeStyle;endArrow=classic;html=1;rounded=0;exitX=0.25;exitY=0;exitDx=0;exitDy=0;entryX=0;entryY=0.5;entryDx=0;entryDy=0;" edge="1" parent="1" source="g5n_KpkKgmh2FyytPr5Z-1" target="g5n_KpkKgmh2FyytPr5Z-5">
          <mxGeometry width="50" height="50" relative="1" as="geometry">
            <mxPoint x="540" y="300" as="sourcePoint" />
            <mxPoint x="610" y="150" as="targetPoint" />
          </mxGeometry>
        </mxCell>
        <mxCell id="g5n_KpkKgmh2FyytPr5Z-5" value="Permissions Activity" style="rounded=0;whiteSpace=wrap;html=1;direction=south;" vertex="1" parent="1">
          <mxGeometry x="560" y="230" width="95" height="150" as="geometry" />
        </mxCell>
        <mxCell id="g5n_KpkKgmh2FyytPr5Z-6" value="First Time Run" style="text;html=1;align=center;verticalAlign=middle;resizable=0;points=[];autosize=1;strokeColor=none;fillColor=none;" vertex="1" parent="1">
          <mxGeometry x="620" y="90" width="90" height="20" as="geometry" />
        </mxCell>
        <mxCell id="g5n_KpkKgmh2FyytPr5Z-7" value="" style="endArrow=none;html=1;rounded=0;" edge="1" parent="1">
          <mxGeometry width="50" height="50" relative="1" as="geometry">
            <mxPoint x="606.97" y="470" as="sourcePoint" />
            <mxPoint x="606.97" y="380" as="targetPoint" />
          </mxGeometry>
        </mxCell>
        <mxCell id="g5n_KpkKgmh2FyytPr5Z-8" value="Config Server Activity" style="rounded=0;whiteSpace=wrap;html=1;direction=south;" vertex="1" parent="1">
          <mxGeometry x="560" y="470" width="95" height="150" as="geometry" />
        </mxCell>
        <mxCell id="g5n_KpkKgmh2FyytPr5Z-9" value="" style="endArrow=none;html=1;rounded=0;" edge="1" parent="1">
          <mxGeometry width="50" height="50" relative="1" as="geometry">
            <mxPoint x="606.87" y="710" as="sourcePoint" />
            <mxPoint x="606.87" y="620" as="targetPoint" />
          </mxGeometry>
        </mxCell>
        <mxCell id="g5n_KpkKgmh2FyytPr5Z-10" value="Config Sensor Activity" style="rounded=0;whiteSpace=wrap;html=1;direction=south;" vertex="1" parent="1">
          <mxGeometry x="560" y="710" width="95" height="150" as="geometry" />
        </mxCell>
        <mxCell id="g5n_KpkKgmh2FyytPr5Z-13" value="MAIN ACTIVITY" style="rounded=1;whiteSpace=wrap;html=1;direction=south;" vertex="1" parent="1">
          <mxGeometry x="365" y="850" width="125" height="220" as="geometry" />
        </mxCell>
        <mxCell id="g5n_KpkKgmh2FyytPr5Z-14" value="" style="shape=partialRectangle;whiteSpace=wrap;html=1;top=0;left=0;fillColor=none;" vertex="1" parent="1">
          <mxGeometry x="490" y="860" width="120" height="100" as="geometry" />
        </mxCell>
        <mxCell id="g5n_KpkKgmh2FyytPr5Z-15" value="" style="endArrow=none;html=1;rounded=0;exitX=0;exitY=0.5;exitDx=0;exitDy=0;" edge="1" parent="1" source="g5n_KpkKgmh2FyytPr5Z-16">
          <mxGeometry width="50" height="50" relative="1" as="geometry">
            <mxPoint x="441.97" y="220" as="sourcePoint" />
            <mxPoint x="442" y="160" as="targetPoint" />
          </mxGeometry>
        </mxCell>
        <mxCell id="g5n_KpkKgmh2FyytPr5Z-16" value="Config Server Activity" style="rounded=0;whiteSpace=wrap;html=1;direction=south;" vertex="1" parent="1">
          <mxGeometry x="395" y="230" width="95" height="150" as="geometry" />
        </mxCell>
        <mxCell id="g5n_KpkKgmh2FyytPr5Z-17" value="" style="endArrow=none;html=1;rounded=0;" edge="1" parent="1">
          <mxGeometry width="50" height="50" relative="1" as="geometry">
            <mxPoint x="441.87" y="470" as="sourcePoint" />
            <mxPoint x="441.87" y="380" as="targetPoint" />
          </mxGeometry>
        </mxCell>
        <mxCell id="g5n_KpkKgmh2FyytPr5Z-18" value="Config Sensor Activity" style="rounded=0;whiteSpace=wrap;html=1;direction=south;" vertex="1" parent="1">
          <mxGeometry x="395" y="470" width="95" height="150" as="geometry" />
        </mxCell>
        <mxCell id="g5n_KpkKgmh2FyytPr5Z-20" value="" style="endArrow=none;html=1;rounded=0;entryX=1;entryY=0.5;entryDx=0;entryDy=0;exitX=0;exitY=0.4;exitDx=0;exitDy=0;exitPerimeter=0;" edge="1" parent="1" source="g5n_KpkKgmh2FyytPr5Z-13" target="g5n_KpkKgmh2FyytPr5Z-18">
          <mxGeometry width="50" height="50" relative="1" as="geometry">
            <mxPoint x="441.8700000000001" y="720" as="sourcePoint" />
            <mxPoint x="441.8700000000001" y="630" as="targetPoint" />
          </mxGeometry>
        </mxCell>
        <mxCell id="g5n_KpkKgmh2FyytPr5Z-21" value="Has Permissions" style="text;html=1;align=center;verticalAlign=middle;resizable=0;points=[];autosize=1;strokeColor=none;fillColor=none;" vertex="1" parent="1">
          <mxGeometry x="440" y="190" width="110" height="20" as="geometry" />
        </mxCell>
      </root>
    </mxGraphModel>
  </diagram>
</mxfile>
